PathFileType	4	(X/Y/Z)	Patient4_TMGait_0pt2_01_right_02.trc.trc
DataRate	CameraRate	NumFrames	NumMarkers	Units	OrigDataRate	OrigDataStartFrame	OrigNumFrames
43.750000000000	43.750000000000	4	33	mm	43.750000000000	53	       141
Frame#	Time	Sacral			L.Shoulder			Chest			R.Shoulder			Neck			R.ASIS			L.ASIS			R.Thigh.Superior			R.Thigh.Lateral			R.Thigh.Inferior			R.Patella			L.Thigh.Superior			L.Thigh.Lateral			L.Thigh.Inferior			L.Patella			L.Shank.Superior			L.Shank.Lateral			L.Shank.Inferior			R.Shank.Superior			R.Shank.Lateral			R.Shank.Inferior			R.Heel			R.Midfoot.Superior			R.Midfoot.Lateral			R.Toe			L.Heel			L.Midfoot.Lateral			L.Midfoot.Superior			L.Toe			L.Elbow			L.Wrist			R.Elbow			R.Wrist			
		X1	Y1	Z1	X2	Y2	Z2	X3	Y3	Z3	X4	Y4	Z4	X5	Y5	Z5	X6	Y6	Z6	X7	Y7	Z7	X8	Y8	Z8	X9	Y9	Z9	X10	Y10	Z10	X11	Y11	Z11	X12	Y12	Z12	X13	Y13	Z13	X14	Y14	Z14	X15	Y15	Z15	X16	Y16	Z16	X17	Y17	Z17	X18	Y18	Z18	X19	Y19	Z19	X20	Y20	Z20	X21	Y21	Z21	X22	Y22	Z22	X23	Y23	Z23	X24	Y24	Z24	X25	Y25	Z25	X26	Y26	Z26	X27	Y27	Z27	X28	Y28	Z28	X29	Y29	Z29	X30	Y30	Z30	X31	Y31	Z31	X32	Y32	Z32	X33	Y33	Z33	

53	3.448571428571	915.422056016315	991.850515638878	584.451706435615	1059.570342816057	1422.895241803580	382.886590383340	1173.218902957927	1366.172438369320	540.951633953264	1093.709415288604	1438.790983889185	717.281642783856	1050.781509876859	1489.637568440372	540.092733223183	1154.365224207940	940.169298587222	690.150041263019	1123.855396448179	956.606777103277	417.170798010737	1197.491532433240	739.621708584294	645.696860058835	1121.707638814659	622.389844772929	702.508000385243	1193.172912676120	576.698247247123	615.304459683857	1193.308480475488	484.133623390494	616.032982763294	1194.824826359698	755.109551759735	437.734010238959	1130.584916053116	635.103813999071	358.400971706556	1225.751721734730	558.768916777532	416.401452575920	1224.645732862654	469.638784076770	403.309248693107	1150.638408579370	412.835807167100	392.357631150313	1003.700470154609	387.898095900398	346.943889392712	981.186516568537	254.355184001804	388.452547050125	1156.191551734320	395.713412692811	619.358818731811	1079.316345288979	294.727888765233	679.272254510160	1107.321594530089	201.392190018851	609.554397734926	957.677888485711	43.894310149157	579.639779000062	1131.069484336603	97.171734993938	610.865980958499	1043.010264886253	37.424310010295	651.859635759135	1251.040161015399	43.968550311572	635.200938843364	788.209825459159	215.018143283975	430.612277613961	832.509377690034	162.273086962449	346.269869653881	938.740375538088	149.169091146315	360.798850851784	993.092304374262	31.443441520646	325.960814563072	1029.185960148395	1066.303996759226	280.646955906526	1090.160951324150	813.637534015615	285.108219550783	1143.117035542235	1104.226007843909	865.895647903813	1356.116666102169	955.353344346192	868.002498238396	
54	3.471428571429	914.081826296730	990.248788367779	587.860292202449	1055.394247950505	1421.559051301473	384.536221272664	1171.502757760083	1364.634369396784	540.743637832844	1095.140719828322	1437.397426180050	718.387970587793	1049.482925332130	1488.359521553827	541.750916236512	1154.291867126069	938.850493375996	690.511682406515	1120.301074616654	955.637701384533	418.009803890291	1197.711963324113	738.580702849538	645.501162129551	1122.960733437845	620.992094617550	702.520945772410	1193.877420918998	575.699328980807	614.549281870697	1194.270194311867	482.591202675466	615.090651567408	1197.153440212569	758.522250219917	439.623613035944	1137.692041295377	636.514528967725	360.021312213726	1235.200138339571	563.097917412229	418.591866172508	1236.406754758800	473.231022307248	404.949568222938	1162.388962275116	415.223524030306	393.843540070597	1014.490656883217	390.604283994213	349.986325198933	992.734064198928	256.596804528293	390.561305560513	1155.863004469918	394.238546792610	618.630158110636	1078.137363963356	294.048079316640	678.797678165705	1104.500219276366	200.510583769871	609.014287522301	953.133863312129	43.878989063728	579.696473834627	1126.561747485642	97.100574054808	610.729065175036	1038.459993866866	37.419576540745	651.888361727120	1246.505973942516	43.845960173137	635.224098383339	800.441355283675	216.207192802870	435.310641168201	843.314369459730	165.610610180904	349.011844720608	949.906078492621	152.281107580719	361.901562008353	1003.600981153205	32.991397944676	322.684722306766	1011.597397595344	1065.474906860926	286.315709806761	1054.452946234159	808.753550436286	293.627503429212	1158.134982743398	1104.879301499904	865.906949229009	1380.995725079421	971.879031140338	862.293153475658	
55	3.494285714286	912.666987736365	989.037692241063	591.080353742471	1051.190955361275	1420.528552635403	386.037964598904	1169.834209511016	1363.299002992643	540.206766071652	1096.828564172112	1436.214010674455	719.166021663122	1048.302802905194	1487.333909618779	543.173688579550	1154.167246543780	937.675057217247	690.465397529445	1116.538600981837	954.938320329592	418.488008173070	1197.525932635050	737.565262247902	644.959873477108	1123.684789583798	619.766738126303	702.325483466003	1193.887775184804	574.751427827963	613.531551521335	1194.409477966751	481.236124713457	613.910799708483	1198.437991857303	761.928006587275	441.210699750965	1143.233530569492	638.141888970918	361.550911381244	1242.766293233027	567.514808283456	420.635237565675	1246.361523451426	477.223977777618	406.603839937856	1172.978917267634	417.809836832799	395.229189655904	1024.723487939884	391.732811022930	352.749888837802	1005.338645396033	257.176977583417	392.384493099639	1154.895988370034	392.937323971660	617.770090259037	1076.516848205238	293.446283121566	678.250551521464	1101.414934242536	199.728457949656	608.430366986528	948.576251430237	43.838635058443	579.738997588087	1122.022639571941	97.040824238436	610.580997616975	1033.894127166805	37.412689018213	651.921357905885	1241.948855541653	43.771802364708	635.236828619540	814.477978521290	212.556500239587	439.375985244018	856.823616815578	165.337283592504	351.137096442475	963.641877875149	153.797494599448	362.617394999240	1018.820582328831	35.017601952194	318.897503181032	994.263368225818	1065.654834475397	291.564533876095	1020.867575843818	806.483564536388	302.442905397883	1172.994160068727	1106.231664564699	865.294206547049	1404.437371528923	989.786024980840	855.623893696957	
56	3.517142857143	911.235078469772	988.355847752601	594.139594246616	1046.978338234177	1419.920323308548	387.400853160385	1168.246480208429	1362.290998889152	539.335092497699	1098.815440394054	1435.358919615944	719.602395918357	1047.254277819971	1486.666928794733	544.368517874955	1154.023529311399	936.728679364141	689.995112174996	1112.604853430511	954.619276096168	418.603057844654	1196.829208715951	736.616909677631	644.089548423941	1123.700685000958	618.804877932445	701.980286899997	1192.982468899870	573.898023778290	612.328674030216	1193.456088651093	480.147780134764	612.598990862087	1198.621333840131	765.272636234747	442.449420840121	1147.072895092152	639.969531927827	362.896505727264	1248.250749423454	571.891311944430	422.436700247404	1254.275351095778	481.544315456340	408.144142680500	1182.239204958729	420.552193982200	396.396712563212	1034.399642452338	391.142969484907	354.982067377994	1019.072830322900	256.042969598112	393.721866997625	1153.084010104293	391.893532041096	616.866232068035	1074.301752269168	292.958125849590	677.708986149666	1097.977375946349	199.093701495600	607.856721033450	943.999484901940	43.776562595819	579.774371872786	1117.449011221252	96.995009798792	610.439358110821	1029.309690974638	37.401245873195	651.961671079397	1237.366411259613	43.744372968330	635.237066584215	830.538519779403	204.157673573416	442.415845425164	873.278013728908	161.324546755004	352.415634202866	980.102933979751	153.552220513046	362.836745807702	1038.863113888636	37.348988695773	314.872740514090	977.381728665864	1066.876515315732	296.420871276191	989.885698250448	806.540878500946	311.395060074250	1187.575113761521	1108.326122641579	864.054308086463	1426.195092601255	1008.868773216532	848.089186605681	
